<!--?xml version="1.0" encoding="utf-8"?-->
<!-- Generator: Adobe Illustrator 15.0.0, SVG Export Plug-In . SVG Version: 6.00 Build 0)  -->

<svg xmlns="http://www.w3.org/2000/svg" xmlns:xlink="http://www.w3.org/1999/xlink" width="500px" height="500px" viewBox="0 0 500 500">
<path fill-rule="evenodd" clip-rule="evenodd" fill="#FF8181" d="M200.9,62.301c6.227,0,12.451,0,18.678,0
	c56.683,4.532,83.856,30.54,93.387,74.709c10.659,49.404-9.351,91.738-29.234,119.372c-0.911,1.266-15.104,20.255-16.241,18.678
	c-5.258-7.295-2.113-40.839-3.248-50.348c-3.358-28.143-8.799-67.236-36.542-64.964c-11.567,0.947-16.167,14.997-10.558,26.798
	c8.979,18.888,41.398,50.666,30.046,91.763c-19.598-60.17-102.857-69.043-96.635-155.915
	C152.811,90.872,168.265,64.851,200.9,62.301z" id="path-0"></path>
<path fill-rule="evenodd" clip-rule="evenodd" fill="#FF8181" d="M358.439,168.681c-18.831,46.915-33.411,83.509-57.656,126.681
	c-4.321,7.695-15.851,34.417-25.985,34.919c-28.366,1.403,7.398-45.909,12.993-55.22c22.158-36.878,40.022-71.167,61.716-112.064
	c-1.237,2.334,8.35-22.651,15.43-18.677C370.873,147.651,360.18,164.346,358.439,168.681z" id="path-1"></path>
<path fill-rule="evenodd" clip-rule="evenodd" fill="#FF8181" d="M313.776,304.294c-6.629-45.229,69.468-46.013,75.521-77.957
	c3.886-20.503-17.931-20.088-32.482-14.617c4.692-18.196,9.589-53.823,29.234-53.596c15.351,0.177,11.501,22.929,34.106,20.301
	c16.986-1.975,33.356-10.982,46.287,4.873c10.707,13.128,14.667,41.222,0,59.28C434.614,281.765,349.26,265.795,313.776,304.294z" id="path-2" style="position: relative;"></path>
<path fill-rule="evenodd" clip-rule="evenodd" fill="#FF8181" d="M19,261.256c10.112-33.26,29.115-72.516,72.273-67.401
	c57.372,6.799,107.319,62.646,133.177,95.822c-17.783-7.165-31.57-17.579-48.724-27.609c-11.046-6.46-70.73-26.36-69.024,2.437
	c1.48,24.999,57.616,23.939,76.333,33.294c3.752,1.874,22.529,17.752,21.113,18.677c-3.756,2.457-27.889-4.007-35.73-4.06
	C111.16,312.027,25.71,339.963,19,273.436C19,269.376,19,265.315,19,261.256z" id="path-3" style="position: relative;"></path>
<path fill-rule="evenodd" clip-rule="evenodd" fill="#FF8181" d="M477,365.198c-6.886,16.391,1.781,34.312-4.061,48.724
	c-7.776,19.185-37.315,34.835-64.152,25.174c-5.789-2.084-10.19-8.783-18.677-8.121c-15.207,1.188-21.246,24.87-46.288,17.865
	c-25.455-7.12-28.765-37.768-36.542-67.4c-1.29-4.913-18.316-33.661-17.865-34.106c9.502-9.379,41.936,8.713,46.287,12.181
	c16.703,13.313,27.927,35.75,48.724,38.167c19.267,2.239,31.732-10.291,24.361-30.046c-12.446-33.358-65.301-42.014-99.07-49.535
	c64.542-14.833,137.091,1.614,167.283,38.979C477,359.785,477,362.491,477,365.198z" id="path-4" style="position: relative;"></path>
<path fill-rule="evenodd" clip-rule="evenodd" fill="#FF8181" d="M181.411,500c-3.332-1.451-9.157-1.746-12.181-3.248
	c-13.25-6.582-16.116-33.733-26.798-36.543c-24.241-6.376-55.338,6.589-57.656-25.985c-3.93-55.226,43.591-92.084,104.755-87.702
	c10.953,0.784,35.252,1.87,37.355,6.496c0.904,1.99-16.889,17.992-20.302,21.926c-7.43,8.563-14.692,17.805-17.054,25.174
	c-8.03,25.066,20.9,22.905,33.295,17.865c12.393-5.04,22.227-19.197,28.422-31.671c0.92-1.852,9.285-28.307,11.369-28.422
	c6.081-0.336,15.537,33.688,16.241,45.476c3.644,61.055-40.78,82.727-84.454,96.635C190.073,500,185.742,500,181.411,500z" id="path-5" style="position: relative;"></path>
<ellipse fill-rule="evenodd" clip-rule="evenodd" fill="#FF8181" cx="339.5" cy="122" rx="17.5" ry="16" id="ellipse-0" style="position: relative;"></ellipse>
<ellipse fill-rule="evenodd" clip-rule="evenodd" fill="#FF8181" cx="372.5" cy="101.5" rx="9.5" ry="17.5" id="ellipse-1" style="position: relative;"></ellipse>
<circle fill-rule="evenodd" clip-rule="evenodd" fill="#FF8181" cx="379.5" cy="134.5" r="9.5" id="circle-0"></circle>
</svg>
